<svg xmlns="http://www.w3.org/2000/svg" viewBox="0 0 600 600"><polygon points="300.0,237.6 480.13,341.6 480.13,237.6 300.0,133.6" fill="#FFFFFF" stroke="#0F231B" stroke-width="3" stroke-linejoin="round" /><line x1="345.03" y1="263.6" x2="345.03" y2="159.6" stroke="#E4E6E0" stroke-width="2" stroke-linecap="round"/><line x1="390.06" y1="289.6" x2="390.06" y2="185.6" stroke="#E4E6E0" stroke-width="2" stroke-linecap="round"/><line x1="435.1" y1="315.6" x2="435.1" y2="211.6" stroke="#E4E6E0" stroke-width="2" stroke-linecap="round"/><line x1="300.0" y1="237.6" x2="480.13" y2="341.6" stroke="#083819" stroke-width="4" stroke-linecap="round"/><polygon points="300.0,289.6 444.1,372.8 363.04,419.6 218.94,336.4" fill="#FFFFFF" stroke="#0F231B" stroke-width="3" stroke-linejoin="round" /><polygon points="218.94,336.4 363.04,419.6 363.04,427.4 218.94,344.2" fill="#083819" /><line x1="300.0" y1="313.0" x2="300.0" y2="388.4" stroke="#5C6F66" stroke-width="3" stroke-linecap="round"/><line x1="417.08" y1="380.6" x2="417.08" y2="456.0" stroke="#5C6F66" stroke-width="3" stroke-linecap="round"/><line x1="241.46" y1="346.8" x2="241.46" y2="422.2" stroke="#5C6F66" stroke-width="3" stroke-linecap="round"/><line x1="358.54" y1="414.4" x2="358.54" y2="489.8" stroke="#5C6F66" stroke-width="3" stroke-linecap="round"/><polygon points="327.02,326.0 381.06,357.2 381.06,318.2 327.02,287.0" fill="#FFFFFF" stroke="#7C8282" stroke-width="2.6" stroke-linejoin="round" /></svg>